# xmcd
#
# Track frame offsets:
#	150
#	11160
#	34135
#	57280
#	72832
#	89937
#	110142
#	126893
#	145417
#	160365
#
# Disc length: 2317 seconds
#
# Revision: 1
# Processed by: cddbd v1.5.1PL0 Copyright (c) Steve Scherf et al.
# Submitted via: audiograbber 1.83.01
#
DISCID=99090b0a
DTITLE=Double Scale - Archive 1
DYEAR=1900
DGENRE=
TTITLE0=The Allman Brothers Band - Don't Want You No More
TTITLE1=The Allman Brothers Band - It's Not My Cross To Bear
TTITLE2=The Allman Brothers Band - Dimples
TTITLE3=Heartbreaker - B.B. King
TTITLE4=The Boneshakers - Cold Sweat
TTITLE5=The Boneshakers - Ball And Chain
TTITLE6=Bonnie Raitt - Love Sneakin Up On You
TTITLE7=The Doors - Roadhouse Blues
TTITLE8=The Doors - Love Me Two Times
TTITLE9=Eddie Floyd - Knock On Wood
EXTD=Compilation
EXTT0=
EXTT1=
EXTT2=
EXTT3=
EXTT4=
EXTT5=
EXTT6=
EXTT7=
EXTT8=
EXTT9=
PLAYORDER=
